<svg xmlns="http://www.w3.org/2000/svg" viewBox="0 0 889 300" width="889" height="300"><g transform="translate(444.57 150) skewX(-8) translate(-444.57 -150)"><path d="M115.78 204Q112.92 204 112.26 201.14L98.84 145.92Q98.40 144.82 97.96 144.82Q97.08 144.82 97.08 146.14L97.08 200.70Q97.08 202.24 96.20 203.12Q95.32 204 93.78 204L59.02 204Q57.48 204 56.60 203.12Q55.72 202.24 55.72 200.70L55.72 53.30Q55.72 51.76 56.60 50.88Q57.48 50 59.02 50L108.52 50Q121.72 50 131.95 56.27Q142.18 62.54 147.90 73.65Q153.62 84.76 153.62 99.06Q153.62 111.16 149.44 120.73Q145.26 130.30 137.34 136.24Q136.46 136.90 136.68 138L154.50 200.26Q154.72 200.70 154.72 201.36Q154.72 204 151.64 204L115.78 204M101.26 85.42L98.40 85.42Q97.08 85.42 97.08 86.74L97.08 112.04Q97.08 113.36 98.40 113.36L101.26 113.36Q106.10 113.36 109.18 109.73Q112.26 106.10 112.26 99.50Q112.26 92.68 109.29 89.05Q106.32 85.42 101.26 85.42M211.04 205.76Q188.82 205.76 175.51 193Q162.20 180.24 162.20 158.68L162.20 95.32Q162.20 73.76 175.51 61Q188.82 48.24 211.04 48.24Q233.26 48.24 246.57 61Q259.88 73.76 259.88 95.32L259.88 158.68Q259.88 180.24 246.57 193Q233.26 205.76 211.04 205.76M211.04 170.34Q214.56 170.34 216.54 167.70Q218.52 165.06 218.52 160.44L218.52 93.56Q218.52 88.94 216.54 86.30Q214.56 83.66 211.04 83.66Q207.52 83.66 205.54 86.30Q203.56 88.94 203.56 93.56L203.56 160.44Q203.56 165.06 205.54 167.70Q207.52 170.34 211.04 170.34M336.22 204Q332.92 204 332.70 200.92L330.28 184.42Q330.28 183.98 329.84 183.54Q329.40 183.10 328.74 183.10L309.38 183.10Q308.72 183.10 308.28 183.54Q307.84 183.98 307.84 184.42L305.64 200.92Q305.42 204 302.12 204L267.58 204Q264.06 204 264.72 200.48L295.96 52.86Q296.62 50 299.70 50L339.74 50Q342.82 50 343.48 52.86L374.72 200.48L374.72 201.36Q374.72 204 371.64 204L336.22 204M312.68 150.10Q312.68 151.42 313.78 151.42L324.12 151.42Q325.66 151.42 325.22 150.10L319.28 110.50Q319.06 109.62 318.62 109.62Q318.18 109.62 317.96 110.50M387.04 204Q385.50 204 384.62 203.12Q383.74 202.24 383.74 200.70L383.74 53.30Q383.74 51.76 384.62 50.88Q385.50 50 387.04 50L430.38 50Q444.90 50 456.01 55.50Q467.12 61 473.28 71.01Q479.44 81.02 479.44 94L479.44 160Q479.44 172.98 473.28 182.99Q467.12 193 456.01 198.50Q444.90 204 430.38 204L387.04 204M425.10 167.26Q425.10 168.58 426.42 168.58L429.50 168.36Q433.02 168.14 435.44 165.06Q437.86 161.98 438.08 157.14L438.08 96.64Q438.08 91.58 435.66 88.50Q433.24 85.42 429.28 85.42L426.42 85.42Q425.10 85.42 425.10 86.74" fill="#F3F0E8"/><path d="M532.90 204Q531.36 204 530.48 203.12Q529.60 202.24 529.60 200.70L529.60 53.30Q529.60 51.76 530.48 50.88Q531.36 50 532.90 50L576.24 50Q590.76 50 601.87 55.50Q612.98 61 619.14 71.01Q625.30 81.02 625.30 94L625.30 160Q625.30 172.98 619.14 182.99Q612.98 193 601.87 198.50Q590.76 204 576.24 204L532.90 204M570.96 167.26Q570.96 168.58 572.28 168.58L575.36 168.36Q578.88 168.14 581.30 165.06Q583.72 161.98 583.94 157.14L583.94 96.64Q583.94 91.58 581.52 88.50Q579.10 85.42 575.14 85.42L572.28 85.42Q570.96 85.42 570.96 86.74M700.98 204Q697.68 204 697.46 200.92L695.04 184.42Q695.04 183.98 694.60 183.54Q694.16 183.10 693.50 183.10L674.14 183.10Q673.48 183.10 673.04 183.54Q672.60 183.98 672.60 184.42L670.40 200.92Q670.18 204 666.88 204L632.34 204Q628.82 204 629.48 200.48L660.72 52.86Q661.38 50 664.46 50L704.50 50Q707.58 50 708.24 52.86L739.48 200.48L739.48 201.36Q739.48 204 736.40 204L700.98 204M677.44 150.10Q677.44 151.42 678.54 151.42L688.88 151.42Q690.42 151.42 689.98 150.10L684.04 110.50Q683.82 109.62 683.38 109.62Q682.94 109.62 682.72 110.50M765.66 203.56Q764.12 203.56 763.24 202.68Q762.36 201.80 762.36 200.26L762.36 149.66Q762.36 148.34 762.14 147.90L731.34 53.74Q731.12 53.30 731.12 52.42Q731.12 50 733.98 50L770.50 50Q773.58 50 774.24 52.86L782.38 96.20Q782.60 97.08 783.26 97.08Q783.92 97.08 784.14 96.20L792.28 52.86Q792.94 50 796.02 50L832.54 50Q834.30 50 834.96 50.99Q835.62 51.98 835.18 53.74L803.94 147.90Q803.72 148.34 803.72 149.66L803.72 200.26Q803.72 201.80 802.84 202.68Q801.96 203.56 800.42 203.56" fill="#F3F0E8"/><rect x="50.0" y="232" width="92.4" height="18" fill="#FFC20E"/><rect x="166.1" y="232" width="92.4" height="18" fill="#FFC20E"/><rect x="282.2" y="232" width="92.4" height="18" fill="#FFC20E"/><rect x="398.3" y="232" width="92.4" height="18" fill="#FFC20E"/><rect x="514.5" y="232" width="92.4" height="18" fill="#FFC20E"/><rect x="630.6" y="232" width="92.4" height="18" fill="#FFC20E"/><rect x="746.7" y="232" width="92.4" height="18" fill="#FFC20E"/></g></svg>